<?xml version="1.0" encoding="utf-8"?>
<!-- Generator: Adobe Illustrator 25.2.0, SVG Export Plug-In . SVG Version: 6.00 Build 0)  -->
<svg version="1.1" id="Layer_1" xmlns="http://www.w3.org/2000/svg" xmlns:xlink="http://www.w3.org/1999/xlink" x="0px" y="0px"
	 viewBox="0 0 1017.2 488.4" style="enable-background:new 0 0 1017.2 488.4;" xml:space="preserve">
<style type="text/css">
	.st0{fill:#E30613;}
	.st1{fill:#FFFFFF;}
	.st2{fill:#2C5797;}
</style>
<g>
	<path class="st0" d="M339.2,252.9c0,3.3-0.1,6.7-0.3,9.9c-0.4,6.5-1.1,12.8-2.4,19.1c-13.6,73.5-78.1,129.3-155.7,129.3
		c-43.8,0-83.3-17.8-112-46.5c-5.9-6.1-11.5-12.5-16.5-19.4c-18.7-26-29.8-57.8-29.8-92.4c0-87.5,70.9-158.4,158.3-158.4
		C268.3,94.5,339.2,165.4,339.2,252.9z"/>
	<path class="st1" d="M277.4,212.8c-13.1-0.8-41.8-36.5-41.8-40C232,177,174.1,301,68.7,364.7c-7.7-4.1-13.8-11.1-16.5-19.4
		c21.3-16.5,88.3-70.4,119.9-121.6c0,0,37.4-50.1,47-79.7c0,0,11.3-18.3,23.5-5.2C254.8,151.9,290.4,213.7,277.4,212.8z"/>
	<path class="st1" d="M339.2,263.5c-5.1-7.4-14.1-20.1-23.5-32c-15-18.9-27.5,0-27.5,0C247.8,321,162.9,370.3,162.9,370.3
		s-10.4,7.3,0,17.7c6.5,6.6,16.2,3,16.2,3c87.4-58,116.5-125.6,120.9-131.8c4.4-6.1,10.4,6.6,26.1,18.7c4.5,3.4,8.9,4.3,11.4,3.9"/>
</g>
<g>
	<path class="st2" d="M442.9,125.2l106.9,116.3v-89.3c0-9.6-1.2-15.6-3.7-18.1c-3.2-3.1-8.2-4.7-15.1-4.7h-6.1v-4.2h36.2V283l-4.8,0
		l-115-124.9v95.3c0,9.6,1.1,15.6,3.4,17.9c3.3,3.3,8.4,4.9,15.1,4.9h6.3v4.2H430V125.2H442.9z"/>
	<path class="st2" d="M655.6,208.4c-0.3-6.7-1.2-11.4-2.6-14.2c-4.6-9-12.3-13.4-23-13.4c-9.8,0-17.3,3.7-22.4,11.2
		c-4,5.9-6.2,13.7-6.6,23.2c-0.4,13,2.9,24.2,10.1,33.7c8,10.7,19.1,16.1,33.2,16.1c9,0,15.8-1.4,20.5-4.2c4.6-2.8,8.5-8,11.7-15.4
		l5,0.9c-2,10.3-7.4,19.1-16.2,26.3c-9.1,7.5-19.4,11.2-31,11.2c-16.2,0-29.1-5.6-38.5-16.8c-8.6-10.1-12.9-22.6-12.9-37.5
		c0-16,4.5-29.3,13.4-39.7c10-11.5,23.7-17.3,41.2-17.3c14.1,0,25.2,4,33.5,12c7.9,7.7,11.8,17.9,11.8,30.7h-39.5
		c-5.1,0-7.7,2.6-7.7,7.9c0,11,0.5,17.8,1.7,20.6l-4.5,1.5l-14.3-31.5v-5.1H655.6z"/>
	<path class="st2" d="M698.1,173h21.4v24.4c11.1-16.5,23.6-24.8,37.7-24.8c14.4,0,25.7,5.6,33.7,16.8c7,9.8,10.6,21.3,10.6,34.7
		c0,18.1-5.9,33.1-17.6,45.1c-9.5,9.7-21.6,14.5-36.2,14.5c-11.1,0-20.5-3.1-28.2-9.4v31.8c0,5.4,0.2,8.8,0.5,10.3
		c1.6,6.6,8.2,9.9,19.6,9.9v4.2h-41.5V173z M719.5,204.1v39.1c0,7.9,0.4,13.5,1.3,16.7c1.5,5.2,4.8,9.3,9.9,12.4
		c4.8,2.8,10.3,4.2,16.5,4.2c11.1,0,19.4-4.8,24.9-14.3c4.4-7.5,6.6-16.7,6.6-27.3c0-16.1-3.9-28.5-11.8-37.1
		c-5.5-5.9-12-8.9-19.6-8.9c-4.1,0-8.2,1-12.4,2.9C731.9,193.1,726.8,197.2,719.5,204.1z"/>
	<path class="st2" d="M890.2,280.4c-0.2-5-0.2-10.2,0-15.5c-13.2,8.9-20.9,13.8-23.1,14.8c-4.6,1.8-9.5,2.7-14.7,2.7
		c-8.6,0-15.5-2.6-20.7-7.8c-4.8-5-7.2-11.3-7.2-19.1c0-10.8,7.4-20.1,22.2-27.9c8.5-4.5,23-10,43.5-16.6v-4.2
		c0-18.3-7.3-27.5-21.9-27.5c-3.3,0-6.5,0.7-9.8,2.1c-3.9,1.7-5.8,3.8-5.8,6.4c0,3.1,2.8,6.9,8.4,11.2l-3.1,3.3l-21.9-15.9l1.5-4.9
		l6.3-3.1c8.2-3.9,17.5-5.8,27.9-5.8c19.7,0,32,5.2,37,15.7c1.6,3.3,2.4,10.1,2.4,20.1v72H890.2z M890.2,217.8
		c-12.8,4.5-21.2,7.8-25.4,9.8c-12.4,6.3-18.7,13.8-18.7,22.5c0,5,1.6,9.4,4.8,13c3.4,4.1,7.9,6.2,13.4,6.2
		c6.5,0,15.2-3.8,25.9-11.6V217.8z"/>
	<path class="st2" d="M953.2,256.7c0,9.8,2.2,15.7,6.6,17.9c2.2,1.1,6.4,1.6,12.5,1.6v4.2h-40.4V117.7h5.8l35.4,12.6l-1.7,4
		c-3.7-1.1-6.7-1.6-9.1-1.6c-2.7,0-4.3,0.1-5,0.2c-2.7,1.1-4,3.5-4,7.2V256.7z"/>
</g>
<g>
	<path class="st2" d="M440.4,388v-39.8h6.3v16.4h24.7v-16.4h6.3V388h-6.3v-18.8h-24.7V388H440.4z"/>
	<path class="st2" d="M485.2,373.5c0-5.3,1.8-9.3,5.3-11.9c3-2.1,6.6-3.2,10.8-3.2c4.7,0,8.6,1.3,11.6,3.9c3,2.6,4.5,6.2,4.5,10.8
		c0,3.7-0.7,6.6-2,8.8c-1.3,2.1-3.3,3.8-5.8,5c-2.5,1.2-5.3,1.8-8.3,1.8c-4.8,0-8.7-1.3-11.7-3.9
		C486.7,382.1,485.2,378.4,485.2,373.5z M491.2,373.5c0,3.7,1,6.5,2.9,8.3c1.9,1.8,4.3,2.8,7.3,2.8c2.9,0,5.3-0.9,7.2-2.8
		c1.9-1.9,2.9-4.7,2.9-8.4c0-3.6-1-6.3-2.9-8.1c-1.9-1.8-4.3-2.8-7.2-2.8c-2.9,0-5.3,0.9-7.3,2.7
		C492.2,367.1,491.2,369.8,491.2,373.5z"/>
	<path class="st2" d="M521.9,379.3l5.8-0.8c0.3,1.9,1.2,3.4,2.7,4.5c1.5,1,3.5,1.6,6.2,1.6c2.7,0,4.7-0.5,6-1.4
		c1.3-0.9,1.9-2,1.9-3.2c0-1.1-0.6-2-1.7-2.6c-0.8-0.4-2.8-1-6-1.7c-4.3-0.9-7.2-1.7-8.9-2.3c-1.6-0.7-2.9-1.6-3.8-2.7
		c-0.9-1.2-1.3-2.5-1.3-3.9c0-1.3,0.3-2.5,1.1-3.6c0.7-1.1,1.7-2,2.9-2.7c0.9-0.6,2.1-1,3.7-1.4c1.6-0.4,3.2-0.6,5-0.6
		c2.7,0,5.1,0.3,7.1,1c2,0.6,3.5,1.5,4.5,2.7c1,1.1,1.6,2.6,2,4.5l-5.7,0.7c-0.3-1.5-1-2.6-2.2-3.5c-1.2-0.8-3-1.3-5.3-1.3
		c-2.7,0-4.6,0.4-5.7,1.1c-1.1,0.7-1.7,1.6-1.7,2.6c0,0.6,0.2,1.2,0.7,1.7c0.5,0.5,1.2,1,2.2,1.3c0.6,0.2,2.3,0.6,5.1,1.3
		c4.1,0.9,7,1.7,8.6,2.3c1.6,0.6,2.9,1.5,3.8,2.6c0.9,1.1,1.4,2.5,1.4,4.2c0,1.6-0.6,3.2-1.7,4.6c-1.1,1.4-2.8,2.6-4.9,3.3
		c-2.1,0.8-4.6,1.2-7.3,1.2c-4.5,0-7.9-0.8-10.2-2.3C524.1,384.7,522.6,382.4,521.9,379.3z"/>
	<path class="st2" d="M557.4,399v-39.9h5.3v3.8c1.3-1.5,2.7-2.6,4.2-3.3c1.6-0.7,3.5-1.1,5.7-1.1c2.9,0,5.5,0.6,7.8,1.9
		c2.2,1.3,3.9,3,5.1,5.4c1.1,2.3,1.7,4.8,1.7,7.6c0,3-0.6,5.6-1.9,8c-1.3,2.4-3.1,4.2-5.5,5.4c-2.4,1.3-4.9,1.9-7.6,1.9
		c-1.9,0-3.7-0.3-5.2-1c-1.5-0.7-2.8-1.6-3.8-2.6v14H557.4z M562.7,373.7c0,3.7,0.9,6.5,2.7,8.2c1.8,1.8,4,2.7,6.5,2.7
		c2.6,0,4.8-0.9,6.7-2.8c1.8-1.8,2.8-4.7,2.8-8.5c0-3.7-0.9-6.4-2.7-8.3c-1.8-1.8-4-2.7-6.5-2.7c-2.5,0-4.7,1-6.6,2.9
		C563.7,367.2,562.7,370,562.7,373.7z"/>
	<path class="st2" d="M594.4,353.8v-5.6h5.8v5.6H594.4z M594.4,388v-28.8h5.8V388H594.4z"/>
	<path class="st2" d="M621.8,383.6l0.8,4.3c-1.6,0.3-3.1,0.4-4.4,0.4c-2.1,0-3.8-0.3-4.9-0.8c-1.2-0.6-2-1.3-2.5-2.2
		c-0.5-0.9-0.7-2.8-0.7-5.8v-16.6h-4.3v-3.8h4.3V352l5.8-2.9v10.1h5.9v3.8h-5.9v16.9c0,1.4,0.1,2.3,0.3,2.7c0.2,0.4,0.5,0.7,1,1
		c0.5,0.2,1.1,0.4,2,0.4C619.9,383.8,620.7,383.7,621.8,383.6z"/>
	<path class="st2" d="M649.9,384.4c-2.2,1.5-4.2,2.6-6.2,3.3c-2,0.6-4.1,0.9-6.4,0.9c-3.8,0-6.7-0.8-8.7-2.3c-2-1.6-3-3.5-3-5.9
		c0-1.4,0.4-2.7,1.1-3.9c0.8-1.2,1.8-2.1,3-2.8c1.2-0.7,2.6-1.2,4.2-1.6c1.1-0.3,2.9-0.5,5.2-0.7c4.7-0.5,8.2-1,10.4-1.7
		c0-0.7,0-1.1,0-1.3c0-2-0.6-3.4-1.7-4.2c-1.5-1.1-3.7-1.7-6.6-1.7c-2.7,0-4.8,0.4-6.1,1.2c-1.3,0.8-2.3,2.2-2.9,4.3l-5.7-0.7
		c0.5-2,1.4-3.7,2.6-5c1.2-1.3,2.9-2.2,5.2-2.9c2.2-0.7,4.8-1,7.8-1c2.9,0,5.3,0.3,7.2,0.9c1.8,0.6,3.2,1.3,4,2.2
		c0.9,0.9,1.5,2,1.8,3.3c0.2,0.8,0.3,2.3,0.3,4.5v6.5c0,4.5,0.1,7.4,0.4,8.6c0.2,1.2,0.7,2.4,1.5,3.5h-6.1
		C650.5,386.9,650.1,385.8,649.9,384.4z M649.5,373.5c-2.1,0.7-5.3,1.3-9.5,1.9c-2.4,0.3-4.1,0.6-5.1,1c-1,0.4-1.8,0.9-2.3,1.6
		c-0.5,0.7-0.8,1.5-0.8,2.3c0,1.3,0.6,2.4,1.8,3.3c1.2,0.9,2.9,1.3,5.2,1.3c2.2,0,4.2-0.4,6-1.2c1.8-0.8,3-2,3.9-3.4
		c0.6-1.1,0.9-2.7,0.9-4.9V373.5z"/>
	<path class="st2" d="M664.3,388v-39.8h5.8V388H664.3z"/>
	<path class="st2" d="M679.2,353.8v-5.6h5.8v5.6H679.2z M679.2,388v-28.8h5.8V388H679.2z"/>
	<path class="st2" d="M706.6,383.6l0.8,4.3c-1.6,0.3-3.1,0.4-4.4,0.4c-2.1,0-3.8-0.3-4.9-0.8c-1.2-0.6-2-1.3-2.5-2.2
		c-0.5-0.9-0.7-2.8-0.7-5.8v-16.6h-4.3v-3.8h4.3V352l5.8-2.9v10.1h5.9v3.8h-5.9v16.9c0,1.4,0.1,2.3,0.3,2.7c0.2,0.4,0.5,0.7,1,1
		c0.5,0.2,1.1,0.4,2,0.4C704.7,383.8,705.5,383.7,706.6,383.6z"/>
	<path class="st2" d="M712,399.1l-0.6-4.6c1.3,0.3,2.4,0.4,3.3,0.4c1.3,0,2.3-0.2,3.1-0.5c0.8-0.4,1.4-0.9,1.9-1.5
		c0.4-0.5,1-1.7,1.8-3.6c0.1-0.3,0.3-0.7,0.5-1.2L709,359.1h6.3l7.2,16.7c0.9,2.1,1.8,4.3,2.5,6.7c0.7-2.2,1.5-4.4,2.4-6.6l7.3-16.8
		h5.8l-13.1,29.3c-1.4,3.2-2.5,5.3-3.3,6.5c-1,1.6-2.2,2.8-3.6,3.5c-1.3,0.7-2.9,1.1-4.8,1.1C714.7,399.7,713.4,399.5,712,399.1z"/>
	<path class="st2" d="M791,383.3c-1.9,1.8-4,3.1-6.3,4c-2.3,0.9-4.7,1.4-7.4,1.4c-4.9,0-8.7-1.4-11.6-4.1c-2.3-2.2-3.5-4.8-3.5-7.5
		c0-2.5,0.9-4.7,2.8-6.7c1.9-2,4.7-3.7,8.5-5.2c-2.1-2.1-3.6-3.7-4.3-5c-0.7-1.3-1.1-2.5-1.1-3.7c0-2.4,1.1-4.5,3.4-6.2
		c2.2-1.8,5-2.6,8.4-2.6c3.2,0,5.9,0.8,8,2.5c2.1,1.7,3.1,3.7,3.1,6c0,3.8-3,7-9,9.7l8.5,9.1c1-1.6,1.7-3.4,2.3-5.5l6.1,1.1
		c-1,3.5-2.4,6.3-4.2,8.6c2.2,2.4,4.7,4.5,7.4,6.1l-3.9,3.9C796,387.6,793.5,385.7,791,383.3z M787.4,379.4l-10.7-11.1
		c-3.2,1.6-5.3,3-6.4,4.4c-1.1,1.4-1.6,2.7-1.6,4c0,1.6,0.8,3.3,2.3,5c1.5,1.7,3.7,2.6,6.5,2.6c1.7,0,3.6-0.5,5.4-1.4
		C784.7,382,786.2,380.9,787.4,379.4z M779.2,362.5c2.5-1.2,4.2-2.3,4.9-3.3c0.7-0.9,1.1-2,1.1-3.1c0-1.4-0.5-2.5-1.5-3.3
		c-1-0.9-2.3-1.3-3.8-1.3c-1.6,0-2.9,0.4-3.9,1.3c-1,0.8-1.6,1.9-1.6,3.1c0,0.6,0.2,1.3,0.6,1.9c0.4,0.7,0.9,1.4,1.7,2.2
		L779.2,362.5z"/>
	<path class="st2" d="M827.5,388v-39.8h6.3v16.4h24.7v-16.4h6.3V388h-6.3v-18.8h-24.7V388H827.5z"/>
	<path class="st2" d="M872.3,373.5c0-5.3,1.8-9.3,5.3-11.9c3-2.1,6.6-3.2,10.8-3.2c4.7,0,8.6,1.3,11.6,3.9c3,2.6,4.5,6.2,4.5,10.8
		c0,3.7-0.7,6.6-2,8.8c-1.3,2.1-3.3,3.8-5.8,5c-2.5,1.2-5.3,1.8-8.3,1.8c-4.8,0-8.7-1.3-11.7-3.9
		C873.8,382.1,872.3,378.4,872.3,373.5z M878.3,373.5c0,3.7,1,6.5,2.9,8.3c1.9,1.8,4.3,2.8,7.3,2.8c2.9,0,5.3-0.9,7.2-2.8
		c1.9-1.9,2.9-4.7,2.9-8.4c0-3.6-1-6.3-2.9-8.1c-1.9-1.8-4.3-2.8-7.2-2.8c-2.9,0-5.3,0.9-7.3,2.7
		C879.2,367.1,878.3,369.8,878.3,373.5z"/>
	<path class="st2" d="M924.1,383.6l0.8,4.3c-1.6,0.3-3.1,0.4-4.4,0.4c-2.1,0-3.8-0.3-4.9-0.8c-1.2-0.6-2-1.3-2.5-2.2
		c-0.5-0.9-0.7-2.8-0.7-5.8v-16.6h-4.3v-3.8h4.3V352l5.8-2.9v10.1h5.9v3.8h-5.9v16.9c0,1.4,0.1,2.3,0.3,2.7c0.2,0.4,0.5,0.7,1,1
		c0.5,0.2,1.1,0.4,2,0.4C922.2,383.8,923,383.7,924.1,383.6z"/>
	<path class="st2" d="M953.3,378.7l6,0.6c-1,3-2.7,5.2-5.3,6.9c-2.6,1.6-5.9,2.4-9.8,2.4c-5,0-9-1.3-12-3.9c-3-2.6-4.4-6.2-4.4-10.9
		c0-4.9,1.5-8.6,4.5-11.3c3-2.7,6.8-4,11.6-4c4.6,0,8.4,1.3,11.3,3.9c2.9,2.6,4.4,6.3,4.4,11.1c0,0.3,0,0.7,0,1.3h-25.7
		c0.2,3.2,1.3,5.6,3.2,7.3c1.9,1.7,4.3,2.5,7.2,2.5c2.1,0,4-0.5,5.5-1.4C951.2,382.2,952.4,380.7,953.3,378.7z M934.2,370.8h19.2
		c-0.3-2.4-1-4.2-2.2-5.5c-1.9-1.9-4.3-2.8-7.2-2.8c-2.7,0-4.9,0.8-6.7,2.3C935.4,366.2,934.4,368.3,934.2,370.8z"/>
	<path class="st2" d="M966.5,388v-39.8h5.8V388H966.5z"/>
</g>
</svg>
